<?xml version="1.0" standalone="no"?>
<!DOCTYPE svg PUBLIC "-//W3C//DTD SVG 20010904//EN"
 "http://www.w3.org/TR/2001/REC-SVG-20010904/DTD/svg10.dtd">
<svg version="1.0" xmlns="http://www.w3.org/2000/svg"
 width="16.000000pt" height="16.000000pt" viewBox="0 0 16.000000 16.000000"
 preserveAspectRatio="xMidYMid meet">
<metadata>
Created by potrace 1.11, written by Peter Selinger 2001-2013
</metadata>
<g transform="translate(0.000000,16.000000) scale(0.008889,-0.008889)"
fill="#000000" stroke="none">
<path d="M195 1301 c-3 -2 -5 -184 -5 -403 l0 -398 44 0 45 0 183 249 c101
138 186 250 189 250 4 1 75 -109 159 -244 84 -135 157 -245 161 -245 4 0 16
15 27 33 l19 33 -149 240 c-83 131 -152 245 -155 251 -6 15 88 146 97 136 10
-11 175 -275 183 -293 4 -8 24 -41 45 -72 20 -32 75 -118 122 -193 47 -74 87
-135 90 -135 3 0 82 125 175 277 94 153 203 330 242 395 44 70 67 118 59 118
-15 0 -45 -47 -276 -425 -84 -137 -156 -254 -160 -258 -4 -4 -52 63 -107 150
-252 396 -313 495 -313 503 0 4 -6 13 -14 19 -15 12 -46 -27 -441 -563 l-130
-176 -5 377 -5 378 -38 1 c-20 0 -40 -2 -42 -5z"/>
</g>
</svg>
